<mxfile host="Electron" agent="Mozilla/5.0 (Windows NT 10.0; Win64; x64) AppleWebKit/537.36 (KHTML, like Gecko) draw.io/26.0.9 Chrome/128.0.6613.186 Electron/32.2.5 Safari/537.36" version="26.0.9">
  <diagram name="Component Diagram" id="7_nNQgnhCJgLzw5vBVIe">
    <mxGraphModel dx="1018" dy="604" grid="1" gridSize="10" guides="1" tooltips="1" connect="1" arrows="1" fold="1" page="1" pageScale="1" pageWidth="827" pageHeight="1169" math="0" shadow="0">
      <root>
        <mxCell id="0" />
        <mxCell id="1" parent="0" />
        <mxCell id="XFMWvun3uup3ezlOTIOH-94" value="Entity" style="shape=component;fillColor=#F5F5F5;" parent="1" vertex="1">
          <mxGeometry x="20" y="260" width="120" height="60" as="geometry" />
        </mxCell>
        <mxCell id="XFMWvun3uup3ezlOTIOH-95" value="Player" style="shape=component;" parent="1" vertex="1">
          <mxGeometry x="630" y="60" width="120" height="60" as="geometry" />
        </mxCell>
        <mxCell id="XFMWvun3uup3ezlOTIOH-96" value="Weapon" style="shape=component;" parent="1" vertex="1">
          <mxGeometry x="390" y="120" width="120" height="60" as="geometry" />
        </mxCell>
        <mxCell id="XFMWvun3uup3ezlOTIOH-97" value="Bullet" style="shape=component;" parent="1" vertex="1">
          <mxGeometry x="390" y="260" width="120" height="60" as="geometry" />
        </mxCell>
        <mxCell id="XFMWvun3uup3ezlOTIOH-98" value="Enemy" style="shape=component;" parent="1" vertex="1">
          <mxGeometry x="390" y="420" width="120" height="60" as="geometry" />
        </mxCell>
        <mxCell id="XFMWvun3uup3ezlOTIOH-100" value="TileMap" style="shape=component;" parent="1" vertex="1">
          <mxGeometry x="130" y="420" width="120" height="60" as="geometry" />
        </mxCell>
        <mxCell id="XFMWvun3uup3ezlOTIOH-101" value="SFML (External)" style="shape=component;fillColor=#ffe6cc;strokeColor=#d79b00;" parent="1" vertex="1">
          <mxGeometry x="620" y="200" width="140" height="60" as="geometry" />
        </mxCell>
        <mxCell id="XFMWvun3uup3ezlOTIOH-102" style="edgeStyle=orthogonalEdgeStyle;curved=0;endArrow=block;endFill=0;dashed=0;" parent="1" source="XFMWvun3uup3ezlOTIOH-95" target="XFMWvun3uup3ezlOTIOH-94" edge="1">
          <mxGeometry relative="1" as="geometry" />
        </mxCell>
        <mxCell id="XFMWvun3uup3ezlOTIOH-103" style="edgeStyle=orthogonalEdgeStyle;curved=0;endArrow=block;endFill=0;dashed=0;" parent="1" source="XFMWvun3uup3ezlOTIOH-98" target="XFMWvun3uup3ezlOTIOH-94" edge="1">
          <mxGeometry relative="1" as="geometry">
            <Array as="points">
              <mxPoint x="80" y="380" />
            </Array>
          </mxGeometry>
        </mxCell>
        <mxCell id="XFMWvun3uup3ezlOTIOH-105" style="edgeStyle=orthogonalEdgeStyle;curved=0;endArrow=diamondThin;endFill=1;startArrow=none;dashed=0;" parent="1" source="XFMWvun3uup3ezlOTIOH-95" target="XFMWvun3uup3ezlOTIOH-96" edge="1">
          <mxGeometry relative="1" as="geometry" />
        </mxCell>
        <mxCell id="XFMWvun3uup3ezlOTIOH-106" style="edgeStyle=orthogonalEdgeStyle;curved=0;endArrow=diamondThin;endFill=1;startArrow=none;dashed=0;" parent="1" source="XFMWvun3uup3ezlOTIOH-96" target="XFMWvun3uup3ezlOTIOH-97" edge="1">
          <mxGeometry relative="1" as="geometry" />
        </mxCell>
        <mxCell id="XFMWvun3uup3ezlOTIOH-107" style="edgeStyle=orthogonalEdgeStyle;curved=0;endArrow=open;endFill=0;startArrow=none;dashed=1;" parent="1" source="XFMWvun3uup3ezlOTIOH-97" target="XFMWvun3uup3ezlOTIOH-94" edge="1">
          <mxGeometry relative="1" as="geometry" />
        </mxCell>
        <mxCell id="XFMWvun3uup3ezlOTIOH-108" style="edgeStyle=orthogonalEdgeStyle;curved=0;endArrow=open;endFill=0;startArrow=none;dashed=1;" parent="1" source="XFMWvun3uup3ezlOTIOH-95" target="XFMWvun3uup3ezlOTIOH-100" edge="1">
          <mxGeometry relative="1" as="geometry" />
        </mxCell>
        <mxCell id="XFMWvun3uup3ezlOTIOH-109" style="edgeStyle=orthogonalEdgeStyle;curved=0;endArrow=open;endFill=0;startArrow=none;dashed=1;" parent="1" source="XFMWvun3uup3ezlOTIOH-98" target="XFMWvun3uup3ezlOTIOH-100" edge="1">
          <mxGeometry relative="1" as="geometry" />
        </mxCell>
        <mxCell id="XFMWvun3uup3ezlOTIOH-110" style="edgeStyle=orthogonalEdgeStyle;curved=0;endArrow=open;endFill=0;startArrow=none;dashed=1;" parent="1" source="XFMWvun3uup3ezlOTIOH-101" target="XFMWvun3uup3ezlOTIOH-95" edge="1">
          <mxGeometry relative="1" as="geometry" />
        </mxCell>
        <mxCell id="XFMWvun3uup3ezlOTIOH-111" style="edgeStyle=orthogonalEdgeStyle;curved=0;endArrow=open;endFill=0;startArrow=none;dashed=1;" parent="1" source="XFMWvun3uup3ezlOTIOH-101" target="XFMWvun3uup3ezlOTIOH-97" edge="1">
          <mxGeometry relative="1" as="geometry" />
        </mxCell>
        <mxCell id="XFMWvun3uup3ezlOTIOH-112" style="edgeStyle=orthogonalEdgeStyle;curved=0;endArrow=open;endFill=0;startArrow=none;dashed=1;" parent="1" source="XFMWvun3uup3ezlOTIOH-101" target="XFMWvun3uup3ezlOTIOH-100" edge="1">
          <mxGeometry relative="1" as="geometry" />
        </mxCell>
      </root>
    </mxGraphModel>
  </diagram>
</mxfile>
